<svg xmlns="http://www.w3.org/2000/svg" xmlns:xlink="http://www.w3.org/1999/xlink" width="854" height="1167" viewBox="0 0 854 1167">
  <defs>
    <filter id="Rectangle_38" x="0" y="0" width="854" height="1167" filterUnits="userSpaceOnUse">
      <feOffset dx="-21" input="SourceAlpha"/>
      <feGaussianBlur stdDeviation="14.5" result="blur"/>
      <feFlood flood-opacity="0.059"/>
      <feComposite operator="in" in2="blur"/>
      <feComposite in="SourceGraphic"/>
    </filter>
    <clipPath id="clip-path">
      <rect id="Rectangle_39" data-name="Rectangle 39" width="767" height="1080" fill="#b8eac4"/>
    </clipPath>
  </defs>
  <g id="Group_90" data-name="Group 90" transform="translate(64.5 43.5)">
    <g transform="matrix(1, 0, 0, 1, -64.5, -43.5)" filter="url(#Rectangle_38)">
      <rect id="Rectangle_38-2" data-name="Rectangle 38" width="767" height="1080" transform="translate(64.5 43.5)" fill="#b8eac4"/>
    </g>
    <g id="Mask_Group_1" data-name="Mask Group 1" clip-path="url(#clip-path)">
      <g id="Group_89" data-name="Group 89" transform="translate(-136.495 -229.369)">
        <path id="Path_43" data-name="Path 43" d="M-4512.346-545c34.216,219.221,85.873,284.015,134.116,291.118,94.11,13.855,155.947-194.671,291.9-195.657,153.1-1.11,274.285,261.891,256.835,273.761-14.041,9.552-112.1-147.4-236.675-134.908-62.764,6.292-126.93,55.062-126.226,99.406.756,47.646,75.872,56.79,205.118,156.21,94.642,72.8,122.021,119.943,146.387,110.451,29.337-11.429,28.55-94.924-7.889-156.21C-3885.79-163.074-3969.932-219.821-4039-204.179c-68.006,15.4-53.5,85.612-137.624,145.953C-4282.9,18.01-4431.463-4.1-4508.841-15.623c-88.213-13.132-172.609-25.694-208.623-89.15-27.977-49.291-23.013-122.691,19.285-152.265,67.468-47.172,230.421,16.817,304.169,120.707,56.363,79.4,93.149,227.926-3.5,295.063-85.01,59.049-241.778,33.283-288.395-46.547-51.246-87.763,43.78-218.368,149.895-255.616,147.416-51.745,313.705,77.569,386.568,173.566,18.815,24.79,118.689,156.371,71,295.063-82,238.483-531.492,297.89-591.687,216.958-47.245-63.523,131.485-232.128,145.512-245.36,46.89-44.233,306.742-276.8,529.448-184.611,112.918,46.739,208.022,173.539,173.562,255.616-58.079,138.33-494.181,173.428-580.291,39.447-85.16-132.505,158.819-450.9,339.234-437.071,230.341,17.649,319.583,573.948,304.171,579.08-9.828,3.273-54.2-220.269-232.293-280.862-93.245-31.726-207.461-13.444-288.391,42.6-92.5,64.063-179.408,203.708-106.941,299.007,68.7,90.355,254.413,106.317,343.614,17.357,69.027-68.839,77.02-197.265,0-252.46-59.53-42.663-156.349-31.9-213.006,7.1-109.576,75.421-104.03,280.6,7.89,391.313,140.737,139.216,432.49,112.051,469.842,32.346,34.464-73.545-124.139-242.035-312.058-270.606-182.726-27.781-419.623,72.7-442.67,238.259-16.961,121.848,83.839,265.122,177.944,266.661,135.458,2.215,170.124-290.649,343.617-306.108,134.178-11.956,263.089,149.886,244.564,174.355-25.188,33.269-311.317-202.782-639.022-142.009-110.35,20.464-196.086,69.148-256.835,113.607" transform="translate(4796.795 574.886)" fill="none" stroke="#99d9a9" stroke-width="3" opacity="0.3"/>
        <path id="Path_42" data-name="Path 42" d="M-4572.344-574c34.215,219.221,85.872,284.015,134.114,291.118,94.11,13.855,155.947-194.671,291.9-195.657,153.1-1.11,274.284,261.891,256.836,273.761-14.042,9.552-112.1-147.4-236.674-134.908-62.765,6.292-126.932,55.062-126.227,99.406.756,47.646,75.872,56.79,205.119,156.21,94.641,72.8,122.021,119.943,146.386,110.451,29.338-11.429,28.551-94.924-7.889-156.21C-3945.79-192.074-4029.932-248.821-4099-233.179c-68.006,15.4-53.5,85.612-137.622,145.953C-4342.9-10.99-4491.462-33.1-4568.839-44.623c-88.215-13.132-172.611-25.694-208.624-89.15-27.977-49.291-23.013-122.691,19.285-152.265,67.468-47.172,230.421,16.817,304.17,120.707,56.363,79.4,93.148,227.926-3.505,295.063-85.009,59.049-241.777,33.283-288.393-46.547-51.248-87.763,43.778-218.368,149.893-255.616,147.416-51.745,313.7,77.569,386.568,173.566,18.817,24.79,118.69,156.371,71,295.063-82,238.483-531.492,297.89-591.686,216.958-47.246-63.523,131.486-232.128,145.512-245.36,46.89-44.233,306.742-276.8,529.45-184.611,112.917,46.739,208.022,173.539,173.561,255.616-58.079,138.33-494.182,173.428-580.291,39.447-85.159-132.505,158.82-450.9,339.233-437.071,230.341,17.648,319.583,573.948,304.171,579.08-9.83,3.272-54.2-220.269-232.292-280.862-93.246-31.726-207.464-13.443-288.393,42.6C-4431.682,346.061-4518.585,485.7-4446.12,581c68.706,90.355,254.414,106.317,343.616,17.357,69.026-68.839,77.021-197.265,0-252.46-59.532-42.663-156.35-31.9-213.008,7.1-109.575,75.421-104.03,280.6,7.89,391.313,140.736,139.216,432.492,112.051,469.844,32.346,34.465-73.545-124.139-242.035-312.059-270.606-182.726-27.781-419.623,72.7-442.669,238.259-16.962,121.848,83.838,265.121,177.943,266.661,135.456,2.215,170.125-290.649,343.618-306.108,134.179-11.956,263.089,149.886,244.563,174.355-25.188,33.27-311.318-202.782-639.021-142.009-110.351,20.464-196.087,69.148-256.836,113.607" transform="translate(4794.961 574)" fill="none" stroke="#fff" stroke-width="3" opacity="0.3"/>
      </g>
    </g>
  </g>
</svg>
