<svg xmlns="http://www.w3.org/2000/svg" xmlns:xlink="http://www.w3.org/1999/xlink" width="302.194" height="56.773" viewBox="0 0 302.194 56.773">
  <defs>
    <linearGradient id="linear-gradient" x1="1.831" y1="0.594" x2="2.531" y2="0.409" gradientUnits="objectBoundingBox">
      <stop offset="0.314" stop-color="#04960b"/>
      <stop offset="1" stop-color="#4fd362"/>
    </linearGradient>
  </defs>
  <g id="quikplugs_logo" data-name="quikplugs logo" transform="translate(-460.693 -787.439)">
    <g id="Group_328" data-name="Group 328" transform="translate(538.838 796.475)">
      <path id="Path_198" data-name="Path 198" d="M1000.944,905.514l6.216,8.373H995.851l-2.935-4.834a13.273,13.273,0,0,1-2.288.173,15.379,15.379,0,1,1,10.316-3.712Zm-10.316-5.223c3.842,0,5.957-2.719,5.957-6.777,0-4.144-2.115-6.82-5.957-6.82-3.928,0-6,2.676-6,6.82C984.629,897.572,986.7,900.292,990.628,900.292Z" transform="translate(-974.874 -873.142)" fill="#fff"/>
      <path id="Path_199" data-name="Path 199" d="M1223.751,946.5h-9.582v-3.712a8.542,8.542,0,0,1-7.467,3.885c-5.611,0-8.891-4.1-8.891-10.4V922.151h9.539v12.906c0,2.331,1.338,3.755,3.41,3.755,2.115,0,3.41-1.424,3.41-3.755V922.151h9.582Z" transform="translate(-1163.928 -910.713)" fill="#fff"/>
      <path id="Path_200" data-name="Path 200" d="M1386.95,851.682c0-2.676,2.115-4.791,5.525-4.791,3.367,0,5.482,2.115,5.482,4.791,0,2.633-2.115,4.7-5.482,4.7C1389.065,856.387,1386.95,854.315,1386.95,851.682Z" transform="translate(-1324.323 -846.891)" fill="#41ce52"/>
      <rect id="Rectangle_128" data-name="Rectangle 128" width="9.582" height="24.344" transform="translate(63.317 11.438)" fill="#fff"/>
      <path id="Path_201" data-name="Path 201" d="M1477.542,872.167h9.582v16.7l6.086-9.107h11.136l-9.107,12.258,9.323,12.086h-11.438l-6-9.712v9.712h-9.582Z" transform="translate(-1401.147 -868.326)" fill="#fff"/>
      <path id="Path_202" data-name="Path 202" d="M1677.507,902.1h-3.8v9.712h-9.582V881.255h13.38c7.683,0,11.611,4.316,11.611,10.489C1689.118,897.4,1685.191,902.1,1677.507,902.1Zm-1.079-7.553c2.158,0,2.978-1.122,2.978-2.806s-.82-2.806-2.978-2.806h-2.719v5.611Z" transform="translate(-1559.375 -876.032)" fill="#fff"/>
      <path id="Path_203" data-name="Path 203" d="M1843.042,872.167h9.582v31.941h-9.582Z" transform="translate(-1711.099 -868.326)" fill="#fff"/>
      <path id="Path_204" data-name="Path 204" d="M1953.9,946.5h-9.582v-3.712a8.543,8.543,0,0,1-7.467,3.885c-5.611,0-8.891-4.1-8.891-10.4V922.151h9.539v12.906c0,2.331,1.338,3.755,3.41,3.755,2.115,0,3.41-1.424,3.41-3.755V922.151h9.582Z" transform="translate(-1783.107 -910.713)" fill="#fff"/>
      <path id="Path_205" data-name="Path 205" d="M2123.176,920.164c3.237,0,5.568,1.424,6.733,3.626v-3.324h9.539v23.912c0,6.431-3.324,12.388-12.431,12.388-7.942,0-12.56-4.014-13.208-10.186h9.409c.259,1.252,1.338,1.9,3.108,1.9,1.942,0,3.583-.691,3.583-4.1v-2.892c-1.165,2.2-3.5,3.626-6.733,3.626-5.611,0-10.057-4.618-10.057-12.474S2117.565,920.164,2123.176,920.164Zm3.194,8.373c-1.985,0-3.539,1.424-3.539,4.1s1.554,4.1,3.539,4.1,3.54-1.424,3.54-4.1S2128.355,928.537,2126.37,928.537Z" transform="translate(-1940.13 -909.028)" fill="#fff"/>
      <path id="Path_206" data-name="Path 206" d="M2313.209,945.112c-7.035,0-11.654-3.755-12.086-8.719h9.194c.216,1.468,1.381,2.115,2.849,2.115.993,0,1.6-.518,1.6-1.122,0-3.194-12.56-.259-12.56-9.194,0-4.4,3.5-8.028,10.359-8.028,6.949,0,10.359,3.928,11.05,8.719h-8.5a2.527,2.527,0,0,0-2.762-2.072c-.949,0-1.511.389-1.511,1.122,0,3.021,12.733.216,12.733,9.582C2323.568,941.832,2319.683,945.112,2313.209,945.112Z" transform="translate(-2099.561 -909.028)" fill="#fff"/>
    </g>
    <path id="Path_207" data-name="Path 207" d="M496.681,805.013c4.065-13.584,18.014-21.108,35.324-15.929,17.091,5.114,24.615,19.063,20.55,32.648-4,13.366-17.883,20.67-34.974,15.556C500.271,832.109,492.681,818.379,496.681,805.013Z" transform="translate(-29.632)" fill="#41ce52"/>
    <g id="Group_337" data-name="Group 337" transform="translate(460.693 790.463)">
      <path id="Path_208" data-name="Path 208" d="M599.1,868.956a11.475,11.475,0,0,1-10.319-6.457l-6.389-13.142a8.076,8.076,0,0,0-7.107-4.878h-12.3l.381-1.361L569.825,820l14.489,1.245c6.98.622,12.684,3.941,15.677,10.157l9.577,21.388A11.474,11.474,0,0,1,599.1,868.956Z" transform="translate(-547.439 -818.077)" fill="#2a2e35"/>
      <path id="Path_209" data-name="Path 209" d="M597.716,983.458a11.477,11.477,0,0,1-8.939-6.374l-6.389-13.142c-1.466-2.907-3.958-4.878-7.107-4.878h-12.3l.381-1.361,4.281-2.581h10.092a8.875,8.875,0,0,1,8.052,5.141c3.779,8.148,4.777,18.506,11.879,23.187C597.685,983.461,597.7,983.454,597.716,983.458Z" transform="translate(-547.439 -932.662)" fill="#21262d"/>
      <g id="Group_335" data-name="Group 335" transform="translate(0 0)">
        <path id="Path_210" data-name="Path 210" d="M526.95,808.224a2.091,2.091,0,0,0-1.718-.892h-16.36a2.091,2.091,0,0,0-1.718.892,19.053,19.053,0,0,0-3.239,10.85c0,5.919,2.482,11.111,6.209,14.023l-.745,1.019,1.1,1.461h6.569c7.255,0,13.138-7.39,13.138-16.5A19.053,19.053,0,0,0,526.95,808.224Z" transform="translate(-497.345 -807.332)" fill="#191d21"/>
        <path id="Path_211" data-name="Path 211" d="M486.968,819.074c0,9.114-5.882,16.5-13.138,16.5s-13.138-7.39-13.138-16.5a19.052,19.052,0,0,1,3.239-10.85,2.091,2.091,0,0,1,1.718-.892h16.36a2.091,2.091,0,0,1,1.718.892A19.052,19.052,0,0,1,486.968,819.074Z" transform="translate(-460.693 -807.332)" fill="#121619"/>
        <path id="Path_212" data-name="Path 212" d="M483.91,843.851c-6.248,0-11.331-6.593-11.331-14.7a17.307,17.307,0,0,1,2.916-9.819.284.284,0,0,1,.235-.116h16.36a.284.284,0,0,1,.235.116,17.307,17.307,0,0,1,2.916,9.819C495.241,837.258,490.158,843.851,483.91,843.851Z" transform="translate(-470.773 -817.412)" fill="#404449"/>
        <g id="Group_334" data-name="Group 334" transform="translate(4.01 6.732)">
          <ellipse id="Ellipse_58" data-name="Ellipse 58" cx="2.153" cy="2.584" rx="2.153" ry="2.584" transform="translate(0.31 0.367)" fill="#121619"/>
          <ellipse id="Ellipse_59" data-name="Ellipse 59" cx="2.153" cy="2.584" rx="2.153" ry="2.584" transform="translate(7.058 0.367)" fill="#121619"/>
          <ellipse id="Ellipse_60" data-name="Ellipse 60" cx="2.153" cy="2.584" rx="2.153" ry="2.584" transform="translate(13.661 0.367)" fill="#121619"/>
          <ellipse id="Ellipse_61" data-name="Ellipse 61" cx="2.153" cy="2.584" rx="2.153" ry="2.584" transform="translate(10.359 9.248)" fill="#121619"/>
          <ellipse id="Ellipse_62" data-name="Ellipse 62" cx="2.153" cy="2.584" rx="2.153" ry="2.584" transform="translate(3.612 9.248)" fill="#121619"/>
          <g id="Group_329" data-name="Group 329">
            <path id="Path_213" data-name="Path 213" d="M489.561,857.553a3.009,3.009,0,1,1,2.483-2.963A2.758,2.758,0,0,1,489.561,857.553Zm0-5.094a2.2,2.2,0,1,0,1.652,2.132A1.941,1.941,0,0,0,489.561,852.459Z" transform="translate(-487.078 -851.628)" fill="#41ce52"/>
          </g>
          <g id="Group_330" data-name="Group 330" transform="translate(6.645)">
            <path id="Path_214" data-name="Path 214" d="M533.283,857.553a3.009,3.009,0,1,1,2.483-2.963A2.758,2.758,0,0,1,533.283,857.553Zm0-5.094a2.2,2.2,0,1,0,1.652,2.132A1.941,1.941,0,0,0,533.283,852.459Z" transform="translate(-530.8 -851.628)" fill="#41ce52"/>
          </g>
          <g id="Group_331" data-name="Group 331" transform="translate(3.322 8.856)">
            <path id="Path_215" data-name="Path 215" d="M511.422,915.827a3.009,3.009,0,1,1,2.483-2.963A2.758,2.758,0,0,1,511.422,915.827Zm0-5.094a2.2,2.2,0,1,0,1.652,2.132A1.941,1.941,0,0,0,511.422,910.733Z" transform="translate(-508.939 -909.902)" fill="#41ce52"/>
          </g>
          <g id="Group_332" data-name="Group 332" transform="translate(9.967 8.856)">
            <path id="Path_216" data-name="Path 216" d="M555.144,915.827a3.009,3.009,0,1,1,2.483-2.963A2.758,2.758,0,0,1,555.144,915.827Zm0-5.094a2.2,2.2,0,1,0,1.652,2.132A1.941,1.941,0,0,0,555.144,910.733Z" transform="translate(-552.661 -909.902)" fill="#41ce52"/>
          </g>
          <g id="Group_333" data-name="Group 333" transform="translate(13.29)">
            <path id="Path_217" data-name="Path 217" d="M577,857.553a3.009,3.009,0,1,1,2.483-2.963A2.758,2.758,0,0,1,577,857.553Zm0-5.094a2.2,2.2,0,1,0,1.652,2.132A1.941,1.941,0,0,0,577,852.459Z" transform="translate(-574.522 -851.628)" fill="#41ce52"/>
          </g>
        </g>
      </g>
      <g id="Group_336" data-name="Group 336" transform="translate(39.439 16.804)">
        <path id="Path_218" data-name="Path 218" d="M729.675,920.054l3.224,17.031-4.817-8.094-.474-.8-2.813,3.076-4.6-9.766,3.43-3.6L726,922.7l.287.578Z" transform="translate(-720.194 -917.903)" fill="url(#linear-gradient)"/>
        <path id="Path_219" data-name="Path 219" d="M769.561,983.051l-.138,1.31-.441-1.057.362-.37A.126.126,0,0,1,769.561,983.051Z" transform="translate(-761.566 -973.012)" fill="#2a2e35"/>
        <path id="Path_220" data-name="Path 220" d="M757.314,949.37l-.384.381a.085.085,0,0,1-.141-.089l.275-.987Z" transform="translate(-751.222 -943.998)" fill="#2a2e35"/>
      </g>
    </g>
  </g>
</svg>
