<svg xmlns="http://www.w3.org/2000/svg" xmlns:xlink="http://www.w3.org/1999/xlink" width="763.493" height="523.983" viewBox="0 0 763.493 523.983">
  <defs>
    <linearGradient id="linear-gradient" x1="2.974" y1="3.006" x2="3.674" y2="2.821" gradientUnits="objectBoundingBox">
      <stop offset="0.314" stop-color="#04960b"/>
      <stop offset="1" stop-color="#4fd362"/>
    </linearGradient>
    <clipPath id="clip-path">
      <rect id="Rectangle_112" data-name="Rectangle 112" width="22.927" height="89.335" rx="11.463" fill="none"/>
    </clipPath>
  </defs>
  <g id="Group_326" data-name="Group 326" transform="translate(-596.009 -636.421)">
    <g id="Group_204" data-name="Group 204" transform="translate(1246.55 679.674)">
      <path id="Path_80" data-name="Path 80" d="M2253.783,894.973c-2.851-1.733-5.546-5.1-7.984-10.528-8.94-19.914-1.035-51.7,4.314-71.691,7.2-26.917,22.73-51.906,48.809-63.834,4.014-1.836,8.342-3.376,12.743-3.03,11.208.883,12.453,12.249,11.823,21.122-1.758,24.612-13.445,51.158-22.85,73.583C2295.8,852.123,2271.716,905.871,2253.783,894.973Z" transform="translate(-2241.755 -745.842)" fill="#cffcb1"/>
    </g>
    <g id="Group_205" data-name="Group 205" transform="translate(702.43 762.235)">
      <path id="Path_81" data-name="Path 81" d="M865.535,996.61c2.092,14.742,9.16,29.3,20.921,38.669,2.81,2.239,6.094,4.262,9.685,4.207,22.589-.343-.69-65.533-4.322-74.894-1.668-4.3-4.224-9.157-8.8-9.783C866.664,952.581,864.231,987.415,865.535,996.61Z" transform="translate(-865.235 -954.707)" fill="#cffcb1"/>
    </g>
    <g id="Group_206" data-name="Group 206" transform="translate(596.009 636.421)">
      <path id="Path_82" data-name="Path 82" d="M1278.377,1159.017H642.483c-24.026-47.707-70.586-160.3-31.259-253.77,51.387-122.144,117.8-2.554,134.4-13.333s35.228-123.575,98.252-87.532,103.909,59.064,129.717,35.892S1091.552,603.3,1164.85,640.828s19.539,233.4,51.755,247.524,74.907-96.367,112.261-8.9C1356.841,944.95,1305.782,1090.2,1278.377,1159.017Z" transform="translate(-596.009 -636.421)" fill="#cffcb1"/>
    </g>
    <g id="Group_234" data-name="Group 234" transform="translate(745.621 684.891)">
      <g id="Group_207" data-name="Group 207" transform="translate(0 13.818)">
        <path id="Path_83" data-name="Path 83" d="M1379.814,794.189,998.375,838.532A26.991,26.991,0,0,0,974.5,865.343h0a11.074,11.074,0,0,0,11.073,11.074H1384.53a26.212,26.212,0,0,0,26.212-26.212V821.73A27.727,27.727,0,0,0,1379.814,794.189Z" transform="translate(-974.5 -794)" fill="#171d23"/>
      </g>
      <g id="Group_208" data-name="Group 208" transform="translate(108.111 90.702)">
        <path id="Path_84" data-name="Path 84" d="M1449.4,988.5,1248,1371.933h115.028L1540.094,988.5Z" transform="translate(-1248 -988.5)" fill="#e8ca77"/>
      </g>
      <g id="Group_209" data-name="Group 209" transform="translate(138.943 90.702)">
        <path id="Path_85" data-name="Path 85" d="M1527.4,988.5,1326,1371.933h115.028L1618.094,988.5Z" transform="translate(-1326 -988.5)" fill="#ffe386"/>
      </g>
      <g id="Group_210" data-name="Group 210" transform="translate(52.771 0)">
        <path id="Path_86" data-name="Path 86" d="M1580.3,759.262l-444.478,51.671A31.453,31.453,0,0,0,1108,842.176h0a12.9,12.9,0,0,0,12.9,12.9h464.89a30.544,30.544,0,0,0,30.544-30.544V791.355A32.309,32.309,0,0,0,1580.3,759.262Z" transform="translate(-1108 -759.042)" fill="#2a3138"/>
      </g>
      <g id="Group_221" data-name="Group 221" transform="translate(343.336 39.907)">
        <g id="Group_211" data-name="Group 211" transform="translate(0 3.506)">
          <path id="Path_87" data-name="Path 87" d="M1862.5,889.488l4.632,6.24h-8.427l-2.187-3.6a9.9,9.9,0,0,1-1.7.128,11.461,11.461,0,1,1,7.687-2.766m-7.687-3.892c2.862,0,4.438-2.026,4.438-5.05,0-3.088-1.576-5.082-4.438-5.082-2.927,0-4.471,1.994-4.471,5.082,0,3.023,1.544,5.05,4.471,5.05" transform="translate(-1843.076 -868.87)" fill="#fff"/>
        </g>
        <g id="Group_212" data-name="Group 212" transform="translate(25.249 8.524)">
          <path id="Path_88" data-name="Path 88" d="M1926.282,899.7h-7.14v-2.767a6.365,6.365,0,0,1-5.564,2.9c-4.182,0-6.626-3.056-6.626-7.752V881.563h7.109v9.618a2.491,2.491,0,0,0,2.541,2.8c1.577,0,2.541-1.061,2.541-2.8v-9.618h7.14Z" transform="translate(-1906.951 -881.563)" fill="#fff"/>
        </g>
        <g id="Group_213" data-name="Group 213" transform="translate(46.67)">
          <path id="Path_89" data-name="Path 89" d="M1961.142,863.57c0-1.994,1.576-3.57,4.117-3.57,2.509,0,4.085,1.576,4.085,3.57,0,1.962-1.576,3.506-4.085,3.506-2.541,0-4.117-1.544-4.117-3.506" transform="translate(-1961.142 -860)" fill="#41ce52"/>
        </g>
        <g id="Group_214" data-name="Group 214" transform="translate(47.185 8.524)">
          <rect id="Rectangle_105" data-name="Rectangle 105" width="7.141" height="18.141" fill="#fff"/>
        </g>
        <g id="Group_215" data-name="Group 215" transform="translate(56.93 2.863)">
          <path id="Path_90" data-name="Path 90" d="M1987.1,867.242h7.141V879.69l4.535-6.787h8.3l-6.787,9.135,6.948,9.006h-8.524l-4.471-7.237v7.237H1987.1Z" transform="translate(-1987.099 -867.242)" fill="#fff"/>
        </g>
        <g id="Group_216" data-name="Group 216" transform="translate(78.062 3.892)">
          <path id="Path_91" data-name="Path 91" d="M2050.529,885.382h-2.83v7.238h-7.141V869.846h9.971c5.726,0,8.653,3.217,8.653,7.816,0,4.214-2.927,7.719-8.653,7.719m-.8-5.628c1.609,0,2.22-.836,2.22-2.091s-.611-2.091-2.22-2.091H2047.7v4.182Z" transform="translate(-2040.558 -869.846)" fill="#fff"/>
        </g>
        <g id="Group_217" data-name="Group 217" transform="translate(98.325 2.863)">
          <rect id="Rectangle_106" data-name="Rectangle 106" width="7.141" height="23.802" fill="#fff"/>
        </g>
        <g id="Group_218" data-name="Group 218" transform="translate(107.942 8.524)">
          <path id="Path_92" data-name="Path 92" d="M2135.482,899.7h-7.141v-2.767a6.366,6.366,0,0,1-5.565,2.9c-4.181,0-6.626-3.056-6.626-7.752V881.563h7.109v9.618a2.49,2.49,0,0,0,2.54,2.8c1.576,0,2.542-1.061,2.542-2.8v-9.618h7.141Z" transform="translate(-2116.15 -881.563)" fill="#fff"/>
        </g>
        <g id="Group_219" data-name="Group 219" transform="translate(128.913 8.299)">
          <path id="Path_93" data-name="Path 93" d="M2176.7,880.994a5.356,5.356,0,0,1,5.017,2.7v-2.477h7.109v17.82c0,4.792-2.477,9.231-9.264,9.231-5.917,0-9.359-2.991-9.842-7.591h7.012c.193.933,1,1.415,2.315,1.415,1.448,0,2.669-.515,2.669-3.056v-2.155a5.356,5.356,0,0,1-5.017,2.7c-4.181,0-7.494-3.442-7.494-9.3s3.313-9.3,7.494-9.3m2.38,6.24c-1.479,0-2.637,1.062-2.637,3.056s1.158,3.056,2.637,3.056,2.637-1.062,2.637-3.056-1.158-3.056-2.637-3.056" transform="translate(-2169.202 -880.994)" fill="#fff"/>
        </g>
        <g id="Group_220" data-name="Group 220" transform="translate(150.206 8.299)">
          <path id="Path_94" data-name="Path 94" d="M2232.075,899.586c-5.243,0-8.685-2.8-9.007-6.5h6.851a1.894,1.894,0,0,0,2.123,1.576c.74,0,1.19-.386,1.19-.836,0-2.38-9.36-.193-9.36-6.851,0-3.281,2.606-5.983,7.719-5.983,5.178,0,7.72,2.927,8.234,6.5h-6.336a1.884,1.884,0,0,0-2.059-1.544c-.708,0-1.125.29-1.125.836,0,2.252,9.489.161,9.489,7.14,0,3.217-2.9,5.661-7.72,5.661" transform="translate(-2223.068 -880.994)" fill="#fff"/>
        </g>
      </g>
      <g id="Group_222" data-name="Group 222" transform="translate(142.183 3.404)">
        <path id="Path_95" data-name="Path 95" d="M1336.551,807.276c9.164-30.627,40.614-47.59,79.639-35.913,38.532,11.53,55.5,42.98,46.332,73.606-9.017,30.134-40.319,46.6-78.851,35.073-39.026-11.677-56.137-42.632-47.12-72.766" transform="translate(-1334.195 -767.654)" fill="#2ab537"/>
      </g>
      <g id="Group_223" data-name="Group 223" transform="translate(152.855 3.404)">
        <path id="Path_96" data-name="Path 96" d="M1363.551,807.276c9.164-30.627,40.614-47.59,79.639-35.913,38.533,11.53,55.5,42.98,46.332,73.606-9.017,30.134-40.319,46.6-78.851,35.073-39.025-11.677-56.137-42.632-47.12-72.766" transform="translate(-1361.195 -767.654)" fill="#41ce52"/>
      </g>
      <g id="Group_233" data-name="Group 233" transform="translate(169.834 24.411)">
        <g id="Group_232" data-name="Group 232">
          <path id="Path_97" data-name="Path 97" d="M1515.35,900.138a16.916,16.916,0,0,1-15.212-9.518l-9.417-19.372c-2.007-4.132-5.834-7.19-10.476-7.19H1462.12l.561-2.006,9.522-34.074,21.357,1.835c10.289.917,18.7,5.81,23.109,14.971l14.117,31.527A16.913,16.913,0,0,1,1515.35,900.138Z" transform="translate(-1439.204 -825.14)" fill="#2a2e35"/>
          <path id="Path_98" data-name="Path 98" d="M1513.315,946.324a16.919,16.919,0,0,1-13.177-9.4l-9.417-19.371c-2.16-4.285-5.834-7.19-10.476-7.19H1462.12l.561-2.006,6.312-3.8h14.876a13.081,13.081,0,0,1,11.869,7.578c5.57,12.011,7.041,27.278,17.51,34.179C1513.269,946.329,1513.3,946.319,1513.315,946.324Z" transform="translate(-1439.204 -871.448)" fill="#21262d"/>
          <g id="Group_230" data-name="Group 230">
            <path id="Path_99" data-name="Path 99" d="M1462.6,822.112a3.082,3.082,0,0,0-2.533-1.314h-24.116a3.081,3.081,0,0,0-2.533,1.314,28.083,28.083,0,0,0-4.774,15.994c0,8.726,3.658,16.378,9.153,20.671l-1.1,1.5,1.627,2.154h9.683c10.695,0,19.365-10.893,19.365-24.328A28.083,28.083,0,0,0,1462.6,822.112Z" transform="translate(-1418.96 -820.798)" fill="#191d21"/>
            <path id="Path_100" data-name="Path 100" d="M1442.877,838.106c0,13.435-8.671,24.328-19.365,24.328s-19.365-10.893-19.365-24.328a28.084,28.084,0,0,1,4.775-15.994,3.082,3.082,0,0,1,2.533-1.314h24.116a3.082,3.082,0,0,1,2.532,1.314A28.082,28.082,0,0,1,1442.877,838.106Z" transform="translate(-1404.147 -820.798)" fill="#121619"/>
            <path id="Path_101" data-name="Path 101" d="M1427.585,863.844c-9.21,0-16.7-9.719-16.7-21.665a25.514,25.514,0,0,1,4.3-14.473.419.419,0,0,1,.347-.172h24.116a.42.42,0,0,1,.347.172,25.517,25.517,0,0,1,4.3,14.473C1444.288,854.126,1436.8,863.844,1427.585,863.844Z" transform="translate(-1408.22 -824.871)" fill="#404449"/>
            <g id="Group_229" data-name="Group 229" transform="translate(5.911 9.923)">
              <ellipse id="Ellipse_46" data-name="Ellipse 46" cx="3.174" cy="3.809" rx="3.174" ry="3.809" transform="translate(0.458 0.542)" fill="#121619"/>
              <ellipse id="Ellipse_47" data-name="Ellipse 47" cx="3.174" cy="3.809" rx="3.174" ry="3.809" transform="translate(10.403 0.542)" fill="#121619"/>
              <ellipse id="Ellipse_48" data-name="Ellipse 48" cx="3.174" cy="3.809" rx="3.174" ry="3.809" transform="translate(20.137 0.542)" fill="#121619"/>
              <ellipse id="Ellipse_49" data-name="Ellipse 49" cx="3.174" cy="3.809" rx="3.174" ry="3.809" transform="translate(15.27 13.633)" fill="#121619"/>
              <ellipse id="Ellipse_50" data-name="Ellipse 50" cx="3.174" cy="3.809" rx="3.174" ry="3.809" transform="translate(5.325 13.633)" fill="#121619"/>
              <g id="Group_224" data-name="Group 224">
                <path id="Path_102" data-name="Path 102" d="M1422.76,854.636c-2.018,0-3.66-1.959-3.66-4.367s1.642-4.367,3.66-4.367,3.66,1.959,3.66,4.367S1424.778,854.636,1422.76,854.636Zm0-7.509c-1.343,0-2.435,1.409-2.435,3.142s1.092,3.143,2.435,3.143,2.435-1.41,2.435-3.143S1424.1,847.127,1422.76,847.127Z" transform="translate(-1419.1 -845.902)" fill="#41ce52"/>
              </g>
              <g id="Group_225" data-name="Group 225" transform="translate(9.795)">
                <path id="Path_103" data-name="Path 103" d="M1447.539,854.636c-2.018,0-3.66-1.959-3.66-4.367s1.642-4.367,3.66-4.367,3.66,1.959,3.66,4.367S1449.557,854.636,1447.539,854.636Zm0-7.509c-1.342,0-2.435,1.409-2.435,3.142s1.093,3.143,2.435,3.143,2.435-1.41,2.435-3.143S1448.882,847.127,1447.539,847.127Z" transform="translate(-1443.879 -845.902)" fill="#41ce52"/>
              </g>
              <g id="Group_226" data-name="Group 226" transform="translate(4.898 13.055)">
                <path id="Path_104" data-name="Path 104" d="M1435.15,887.662c-2.018,0-3.659-1.959-3.659-4.367s1.641-4.367,3.659-4.367,3.66,1.959,3.66,4.367S1437.168,887.662,1435.15,887.662Zm0-7.51c-1.343,0-2.435,1.41-2.435,3.143s1.092,3.142,2.435,3.142,2.435-1.41,2.435-3.142S1436.492,880.153,1435.15,880.153Z" transform="translate(-1431.49 -878.928)" fill="#41ce52"/>
              </g>
              <g id="Group_227" data-name="Group 227" transform="translate(14.692 13.055)">
                <path id="Path_105" data-name="Path 105" d="M1459.929,887.662c-2.017,0-3.66-1.959-3.66-4.367s1.642-4.367,3.66-4.367,3.66,1.959,3.66,4.367S1461.947,887.662,1459.929,887.662Zm0-7.51c-1.343,0-2.435,1.41-2.435,3.143s1.092,3.142,2.435,3.142,2.435-1.41,2.435-3.142S1461.271,880.153,1459.929,880.153Z" transform="translate(-1456.269 -878.928)" fill="#41ce52"/>
              </g>
              <g id="Group_228" data-name="Group 228" transform="translate(19.59)">
                <path id="Path_106" data-name="Path 106" d="M1472.318,854.636c-2.018,0-3.659-1.959-3.659-4.367s1.641-4.367,3.659-4.367,3.66,1.959,3.66,4.367S1474.336,854.636,1472.318,854.636Zm0-7.509c-1.342,0-2.435,1.409-2.435,3.142s1.093,3.143,2.435,3.143,2.436-1.41,2.436-3.143S1473.661,847.127,1472.318,847.127Z" transform="translate(-1468.659 -845.902)" fill="#41ce52"/>
              </g>
            </g>
          </g>
          <g id="Group_231" data-name="Group 231" transform="translate(58.135 24.771)">
            <path id="Path_107" data-name="Path 107" d="M1565.192,886.633l4.752,25.1-7.1-11.931-.7-1.174L1558,903.167l-6.783-14.4,5.056-5.309,3.5,7.066.423.852Z" transform="translate(-1551.217 -883.463)" fill="url(#linear-gradient)"/>
            <path id="Path_108" data-name="Path 108" d="M1579.721,920.532l-.2,1.931-.651-1.557.534-.545A.186.186,0,0,1,1579.721,920.532Z" transform="translate(-1567.937 -905.734)" fill="#2a2e35"/>
            <path id="Path_109" data-name="Path 109" d="M1572.736,901.927l-.566.562a.125.125,0,0,1-.208-.131l.405-1.456Z" transform="translate(-1563.756 -894.009)" fill="#2a2e35"/>
          </g>
        </g>
      </g>
    </g>
    <g id="Group_265" data-name="Group 265" transform="translate(655.101 905.247)">
      <g id="Group_235" data-name="Group 235" transform="translate(54.154 165.23)">
        <path id="Path_110" data-name="Path 110" d="M944.572,1819.317l.779,3.732H926.772l-.008,0a44.25,44.25,0,1,1,17.808-3.728Z" transform="translate(-882.5 -1734.5)" fill="#21262d"/>
      </g>
      <g id="Group_236" data-name="Group 236" transform="translate(271.166 165.23)">
        <path id="Path_111" data-name="Path 111" d="M1493.212,1819.475l.743,3.574h-18.578l-.02-.008a44.237,44.237,0,1,1,17.855-3.566Z" transform="translate(-1431.5 -1734.5)" fill="#21262d"/>
      </g>
      <g id="Group_237" data-name="Group 237" transform="translate(10.261 0)">
        <path id="Path_112" data-name="Path 112" d="M771.458,1537.863h416.648s5.534-91.314,9.882-116.217c2.767-19.764-14.6-30.543-26.88-64.037-1.736-4.736-4.482-12.247-7.154-19.561a32.8,32.8,0,0,0-30.814-21.549H940.621a37.77,37.77,0,0,0-33.037,19.463l-44.418,80.149-73.98,23.092a25.251,25.251,0,0,0-17.728,24.1Z" transform="translate(-771.458 -1316.5)" fill="#5390cb"/>
      </g>
      <g id="Group_238" data-name="Group 238" transform="translate(130.445 11.463)">
        <path id="Path_113" data-name="Path 113" d="M1192.157,1345.5v84.718H1075.5l18.99-44.237,9.159-21.333A31.614,31.614,0,0,1,1132.7,1345.5Z" transform="translate(-1075.5 -1345.5)" fill="#fff"/>
      </g>
      <g id="Group_239" data-name="Group 239" transform="translate(257.118 11.463)">
        <path id="Path_114" data-name="Path 114" d="M1490.252,1356.615v73.6H1395.96V1345.5h83.176a10.908,10.908,0,0,1,2.6.312A11.109,11.109,0,0,1,1490.252,1356.615Z" transform="translate(-1395.96 -1345.5)" fill="#fff"/>
      </g>
      <g id="Group_240" data-name="Group 240" transform="translate(363.296 11.463)">
        <path id="Path_115" data-name="Path 115" d="M1708.127,1430.218H1664.57V1345.5h12.776a12.886,12.886,0,0,1,11.511,7.075c.139.277.269.561.391.85l3.218,7.7,2.51,6,21.266,50.909A8.792,8.792,0,0,1,1708.127,1430.218Z" transform="translate(-1664.57 -1345.5)" fill="#fff"/>
      </g>
      <g id="Group_241" data-name="Group 241" transform="translate(0 201.201)">
        <rect id="Rectangle_107" data-name="Rectangle 107" width="58.107" height="28.065" rx="14.033" fill="#3c5483"/>
      </g>
      <g id="Group_242" data-name="Group 242" transform="translate(399.239 201.201)">
        <rect id="Rectangle_108" data-name="Rectangle 108" width="45.458" height="28.065" rx="14.033" fill="#3c5483"/>
      </g>
      <g id="Group_243" data-name="Group 243" transform="translate(72.733 165.235)">
        <circle id="Ellipse_51" data-name="Ellipse 51" cx="44.272" cy="44.272" r="44.272" fill="#41464c"/>
      </g>
      <g id="Group_244" data-name="Group 244" transform="translate(99.217 191.719)">
        <circle id="Ellipse_52" data-name="Ellipse 52" cx="17.788" cy="17.788" r="17.788" fill="#f7f7f7"/>
      </g>
      <g id="Group_245" data-name="Group 245" transform="translate(289.745 165.235)">
        <circle id="Ellipse_53" data-name="Ellipse 53" cx="44.272" cy="44.272" r="44.272" fill="#41464c"/>
      </g>
      <g id="Group_246" data-name="Group 246" transform="translate(316.229 191.719)">
        <circle id="Ellipse_54" data-name="Ellipse 54" cx="17.788" cy="17.788" r="17.788" fill="#f7f7f7"/>
      </g>
      <g id="Group_247" data-name="Group 247" transform="translate(130.017 106.695)">
        <path id="Path_116" data-name="Path 116" d="M1075.2,1587.761a3.024,3.024,0,0,1-.779-1.2l.368-.145a4.5,4.5,0,0,0,.7,1.07Z" transform="translate(-1074.418 -1586.419)" fill="#44a54d"/>
      </g>
      <g id="Group_248" data-name="Group 248" transform="translate(129.84 106.089)">
        <path id="Path_117" data-name="Path 117" d="M1074.143,1585.617a2.488,2.488,0,0,1-.155-.442l-.017-.232.39-.058.087.367c.019.079.041.153.063.224Z" transform="translate(-1073.971 -1584.885)" fill="#44a54d"/>
      </g>
      <g id="Group_250" data-name="Group 250" transform="translate(217.605 112.854)">
        <g id="Group_249" data-name="Group 249">
          <path id="Path_118" data-name="Path 118" d="M1317.939,1605.558h-20.159a1.779,1.779,0,0,1,0-3.558h20.159a1.779,1.779,0,0,1,0,3.558Z" transform="translate(-1296 -1602)" fill="#fff"/>
        </g>
      </g>
      <g id="Group_252" data-name="Group 252" transform="translate(322.554 112.854)">
        <g id="Group_251" data-name="Group 251">
          <path id="Path_119" data-name="Path 119" d="M1583.439,1605.558h-20.16a1.779,1.779,0,0,1,0-3.558h20.16a1.779,1.779,0,0,1,0,3.558Z" transform="translate(-1561.5 -1602)" fill="#fff"/>
        </g>
      </g>
      <g id="Group_253" data-name="Group 253" transform="translate(373.941 122.143)">
        <circle id="Ellipse_55" data-name="Ellipse 55" cx="13.835" cy="13.835" r="13.835" fill="#2b709e"/>
      </g>
      <g id="Group_254" data-name="Group 254" transform="translate(16.602 135.188)">
        <ellipse id="Ellipse_56" data-name="Ellipse 56" cx="10.475" cy="14.428" rx="10.475" ry="14.428" fill="#f7f7f7"/>
      </g>
      <g id="Group_255" data-name="Group 255" transform="translate(10.277 175.507)">
        <path id="Rectangle_109" data-name="Rectangle 109" d="M0,0H12.42a3.391,3.391,0,0,1,3.391,3.391v0A3.391,3.391,0,0,1,12.42,6.782H0a0,0,0,0,1,0,0V0A0,0,0,0,1,0,0Z" fill="#346c9b"/>
      </g>
      <g id="Group_256" data-name="Group 256" transform="translate(10.277 185.785)">
        <path id="Rectangle_110" data-name="Rectangle 110" d="M0,0H12.42a3.391,3.391,0,0,1,3.391,3.391v0A3.391,3.391,0,0,1,12.42,6.782H0a0,0,0,0,1,0,0V0A0,0,0,0,1,0,0Z" fill="#346c9b"/>
      </g>
      <g id="Group_257" data-name="Group 257" transform="translate(130.445 11.463)">
        <path id="Path_120" data-name="Path 120" d="M1185.5,1345.5l-107.581,84.718H1075.5l18.99-44.237,58.581-40.481Z" transform="translate(-1075.5 -1345.5)" fill="#e6f4ff"/>
      </g>
      <g id="Group_258" data-name="Group 258" transform="translate(148.26 16.547)">
        <path id="Path_121" data-name="Path 121" d="M1219.412,1358.36v9.435l-77.856,70.2H1120.57Z" transform="translate(-1120.57 -1358.36)" fill="#e6f4ff"/>
      </g>
      <g id="Group_259" data-name="Group 259" transform="translate(129.216 83.924)">
        <path id="Path_122" data-name="Path 122" d="M1098.128,1532.555v8.527a7.125,7.125,0,0,1-4.838,6.751l-16.361,5.562a2.813,2.813,0,0,1-2.8-.589.1.1,0,0,1-.02-.024,4.686,4.686,0,0,1-.728-1.119.126.126,0,0,1-.012-.036c-.024-.075-.047-.154-.067-.237l-.087-.368-.771-11.953a1.84,1.84,0,0,1,1.249-2.19l19.693-7.8q.374-.153.723-.261A3.743,3.743,0,0,1,1098.128,1532.555Z" transform="translate(-1072.392 -1528.812)" fill="#3c5483"/>
      </g>
      <g id="Group_260" data-name="Group 260" transform="translate(130.95 83.676)">
        <path id="Path_123" data-name="Path 123" d="M1103.154,1533.362v8.526a7.127,7.127,0,0,1-4.838,6.752l-16.361,5.561a4.936,4.936,0,0,1-5.175-1.774,2.813,2.813,0,0,0,2.8.589l16.361-5.562a7.126,7.126,0,0,0,4.838-6.752v-8.526a3.742,3.742,0,0,0-4.02-3.731C1101.023,1527.156,1103.154,1530.978,1103.154,1533.362Z" transform="translate(-1076.78 -1528.186)" fill="#2e4870"/>
      </g>
      <g id="Group_261" data-name="Group 261" transform="translate(257.118 11.463)">
        <path id="Path_124" data-name="Path 124" d="M1468.487,1345.5l-72.527,71.626v-24.682l61.554-46.944Z" transform="translate(-1395.96 -1345.5)" fill="#e6f4ff"/>
      </g>
      <g id="Group_262" data-name="Group 262" transform="translate(265.933 11.463)">
        <path id="Path_125" data-name="Path 125" d="M1495.226,1345.813l-62.538,84.405H1418.26L1487.6,1345.5h5.02A10.91,10.91,0,0,1,1495.226,1345.813Z" transform="translate(-1418.26 -1345.5)" fill="#e6f4ff"/>
      </g>
      <g id="Group_263" data-name="Group 263" transform="translate(363.296 27.093)">
        <path id="Path_126" data-name="Path 126" d="M1694.976,1391.041l-30.405,33.425v-14.1l27.9-25.326Z" transform="translate(-1664.57 -1385.04)" fill="#e6f4ff"/>
      </g>
      <g id="Group_264" data-name="Group 264" transform="translate(363.296 14.803)">
        <path id="Path_127" data-name="Path 127" d="M1688.856,1357.685l-24.286,25.524V1366.37l21.441-12.42A12.892,12.892,0,0,1,1688.856,1357.685Z" transform="translate(-1664.57 -1353.95)" fill="#e6f4ff"/>
      </g>
    </g>
    <g id="Group_292" data-name="Group 292" transform="translate(1033.785 902.938)">
      <g id="Group_266" data-name="Group 266" transform="translate(75.923 28.003)">
        <path id="Path_128" data-name="Path 128" d="M1982.93,1455.419h-87.358l38.286-73.919h87.358Z" transform="translate(-1895.572 -1381.5)" fill="#e9f2e9"/>
      </g>
      <g id="Group_267" data-name="Group 267" transform="translate(75.923 101.921)">
        <rect id="Rectangle_111" data-name="Rectangle 111" width="87.358" height="154.167" fill="#f7f7f7"/>
      </g>
      <g id="Group_268" data-name="Group 268" transform="translate(163.282 28.003)">
        <path id="Path_129" data-name="Path 129" d="M2154.858,1381.5h27.45v228.086h-65.736V1455.419Z" transform="translate(-2116.572 -1381.5)" fill="#d8ead8"/>
      </g>
      <g id="Group_269" data-name="Group 269" transform="translate(94.671 39.033)">
        <path id="Path_130" data-name="Path 130" d="M2004.289,1461.262H1943l26.86-51.859h61.288Z" transform="translate(-1943 -1409.403)" fill="#4d486d"/>
      </g>
      <g id="Group_272" data-name="Group 272" transform="translate(108.139 134.338)">
        <g id="Group_271" data-name="Group 271">
          <g id="Group_270" data-name="Group 270" clip-path="url(#clip-path)">
            <path id="Path_131" data-name="Path 131" d="M1977.072,1874.688l1.143.719h-1.143Z" transform="translate(-1977.072 -1786.072)" fill="#23b02f"/>
            <path id="Path_132" data-name="Path 132" d="M1977.072,1871.362l3.233,2.034h-2.091l-1.143-.719Z" transform="translate(-1977.072 -1784.061)" fill="#24b030"/>
            <path id="Path_133" data-name="Path 133" d="M1977.072,1868.035l5.324,3.349h-2.09l-3.233-2.033Z" transform="translate(-1977.072 -1782.049)" fill="#25b131"/>
            <path id="Path_134" data-name="Path 134" d="M1977.072,1864.708l7.414,4.664h-2.09l-5.324-3.349Z" transform="translate(-1977.072 -1780.037)" fill="#26b232"/>
            <path id="Path_135" data-name="Path 135" d="M1977.072,1861.38l9.5,5.979h-2.091l-7.414-4.664Z" transform="translate(-1977.072 -1778.025)" fill="#27b233"/>
            <path id="Path_136" data-name="Path 136" d="M1977.072,1858.053l11.595,7.295h-2.09l-9.5-5.979Z" transform="translate(-1977.072 -1776.013)" fill="#28b334"/>
            <path id="Path_137" data-name="Path 137" d="M1977.072,1854.727l13.685,8.609h-2.091l-11.595-7.294Z" transform="translate(-1977.072 -1774.001)" fill="#29b435"/>
            <path id="Path_138" data-name="Path 138" d="M1977.072,1851.4l15.775,9.924h-2.09l-13.685-8.609Z" transform="translate(-1977.072 -1771.99)" fill="#2ab537"/>
            <path id="Path_139" data-name="Path 139" d="M1977.072,1848.073l17.865,11.24h-2.09l-15.775-9.925Z" transform="translate(-1977.072 -1769.978)" fill="#2ab538"/>
            <path id="Path_140" data-name="Path 140" d="M1977.072,1844.746l19.956,12.555h-2.091l-17.865-11.24Z" transform="translate(-1977.072 -1767.966)" fill="#2bb639"/>
            <path id="Path_141" data-name="Path 141" d="M1977.072,1841.419l21.033,13.232-.4.638h-.676l-19.956-12.555Z" transform="translate(-1977.072 -1765.954)" fill="#2cb73a"/>
            <path id="Path_142" data-name="Path 142" d="M1977.072,1838.092,1998.7,1851.7l-.593.942-21.033-13.232Z" transform="translate(-1977.072 -1763.942)" fill="#2db73b"/>
            <path id="Path_143" data-name="Path 143" d="M1977.072,1834.765l22.219,13.978-.593.942-21.626-13.605Z" transform="translate(-1977.072 -1761.93)" fill="#2eb83c"/>
            <path id="Path_144" data-name="Path 144" d="M1977.072,1831.438l22.811,14.351-.593.943-22.219-13.979Z" transform="translate(-1977.072 -1759.918)" fill="#2fb93d"/>
            <path id="Path_145" data-name="Path 145" d="M1977.072,1828.111,2000,1842.535v1.059l-.115.184-22.811-14.351Z" transform="translate(-1977.072 -1757.906)" fill="#30b93e"/>
            <path id="Path_146" data-name="Path 146" d="M1977.072,1824.784,2000,1839.208v1.315l-22.927-14.424Z" transform="translate(-1977.072 -1755.895)" fill="#30ba3f"/>
            <path id="Path_147" data-name="Path 147" d="M1977.072,1821.457,2000,1835.881v1.315l-22.927-14.424Z" transform="translate(-1977.072 -1753.883)" fill="#31bb40"/>
            <path id="Path_148" data-name="Path 148" d="M1977.072,1818.13,2000,1832.554v1.315l-22.927-14.424Z" transform="translate(-1977.072 -1751.871)" fill="#32bc41"/>
            <path id="Path_149" data-name="Path 149" d="M1977.072,1814.8,2000,1829.227v1.315l-22.927-14.424Z" transform="translate(-1977.072 -1749.859)" fill="#33bc42"/>
            <path id="Path_150" data-name="Path 150" d="M1977.072,1811.476,2000,1825.9v1.315l-22.927-14.424Z" transform="translate(-1977.072 -1747.847)" fill="#34bd43"/>
            <path id="Path_151" data-name="Path 151" d="M1977.072,1808.149,2000,1822.573v1.315l-22.927-14.424Z" transform="translate(-1977.072 -1745.835)" fill="#35be44"/>
            <path id="Path_152" data-name="Path 152" d="M1977.072,1804.822,2000,1819.245v1.315l-22.927-14.424Z" transform="translate(-1977.072 -1743.823)" fill="#36be45"/>
            <path id="Path_153" data-name="Path 153" d="M1977.072,1801.495,2000,1815.919v1.315l-22.927-14.424Z" transform="translate(-1977.072 -1741.811)" fill="#37bf46"/>
            <path id="Path_154" data-name="Path 154" d="M1977.072,1798.168,2000,1812.591v1.316l-22.927-14.424Z" transform="translate(-1977.072 -1739.799)" fill="#37c047"/>
            <path id="Path_155" data-name="Path 155" d="M1977.072,1794.841,2000,1809.265v1.315l-22.927-14.424Z" transform="translate(-1977.072 -1737.788)" fill="#38c148"/>
            <path id="Path_156" data-name="Path 156" d="M1977.072,1791.514,2000,1805.938v1.315l-22.927-14.424Z" transform="translate(-1977.072 -1735.776)" fill="#39c149"/>
            <path id="Path_157" data-name="Path 157" d="M1977.072,1788.187,2000,1802.61v1.315l-22.927-14.423Z" transform="translate(-1977.072 -1733.764)" fill="#3ac24a"/>
            <path id="Path_158" data-name="Path 158" d="M1977.072,1784.86,2000,1799.284v1.315l-22.927-14.424Z" transform="translate(-1977.072 -1731.752)" fill="#3bc34b"/>
            <path id="Path_159" data-name="Path 159" d="M1977.072,1781.533,2000,1795.957v1.315l-22.927-14.423Z" transform="translate(-1977.072 -1729.74)" fill="#3cc34c"/>
            <path id="Path_160" data-name="Path 160" d="M1977.072,1778.206,2000,1792.63v1.315l-22.927-14.424Z" transform="translate(-1977.072 -1727.728)" fill="#3dc44d"/>
            <path id="Path_161" data-name="Path 161" d="M1977.072,1774.879,2000,1789.3v1.315l-22.927-14.423Z" transform="translate(-1977.072 -1725.717)" fill="#3ec54e"/>
            <path id="Path_162" data-name="Path 162" d="M1977.072,1771.552,2000,1785.976v1.315l-22.927-14.424Z" transform="translate(-1977.072 -1723.705)" fill="#3ec64f"/>
            <path id="Path_163" data-name="Path 163" d="M1977.072,1768.226,2000,1782.649v1.316l-22.927-14.424Z" transform="translate(-1977.072 -1721.693)" fill="#3fc650"/>
            <path id="Path_164" data-name="Path 164" d="M1977.072,1764.9,2000,1779.322v1.315l-22.927-14.424Z" transform="translate(-1977.072 -1719.681)" fill="#40c751"/>
            <path id="Path_165" data-name="Path 165" d="M1977.072,1761.571,2000,1775.995v1.315l-22.927-14.424Z" transform="translate(-1977.072 -1717.669)" fill="#41c852"/>
            <path id="Path_166" data-name="Path 166" d="M1977.072,1758.244,2000,1772.668v1.315l-22.927-14.423Z" transform="translate(-1977.072 -1715.657)" fill="#42c853"/>
            <path id="Path_167" data-name="Path 167" d="M1977.072,1754.917,2000,1769.341v1.315l-22.927-14.424Z" transform="translate(-1977.072 -1713.646)" fill="#43c954"/>
            <path id="Path_168" data-name="Path 168" d="M1977.072,1751.591,2000,1766.014v1.315l-22.927-14.424Z" transform="translate(-1977.072 -1711.634)" fill="#44ca55"/>
            <path id="Path_169" data-name="Path 169" d="M1977.072,1748.263,2000,1762.687V1764l-22.927-14.424Z" transform="translate(-1977.072 -1709.621)" fill="#45ca56"/>
            <path id="Path_170" data-name="Path 170" d="M1977.072,1744.936,2000,1759.36v1.315l-22.927-14.424Z" transform="translate(-1977.072 -1707.61)" fill="#45cb57"/>
            <path id="Path_171" data-name="Path 171" d="M1977.072,1741.609,2000,1756.033v1.315l-22.927-14.424Z" transform="translate(-1977.072 -1705.598)" fill="#46cc58"/>
            <path id="Path_172" data-name="Path 172" d="M1977.072,1738.282,2000,1752.706v1.315l-22.927-14.424Z" transform="translate(-1977.072 -1703.586)" fill="#47cd59"/>
            <path id="Path_173" data-name="Path 173" d="M1977.072,1734.955,2000,1749.379v1.315l-22.927-14.424Z" transform="translate(-1977.072 -1701.574)" fill="#48cd5a"/>
            <path id="Path_174" data-name="Path 174" d="M1977.072,1731.629,2000,1746.052v1.315l-22.927-14.424Z" transform="translate(-1977.072 -1699.563)" fill="#49ce5b"/>
            <path id="Path_175" data-name="Path 175" d="M1977.072,1728.3,2000,1742.725v1.315l-22.927-14.423Z" transform="translate(-1977.072 -1697.55)" fill="#4acf5c"/>
            <path id="Path_176" data-name="Path 176" d="M1977.072,1724.974,2000,1739.4v1.315l-22.927-14.424Z" transform="translate(-1977.072 -1695.538)" fill="#4bcf5d"/>
            <path id="Path_177" data-name="Path 177" d="M1977.072,1721.647,2000,1736.071v1.315l-22.927-14.424Z" transform="translate(-1977.072 -1693.526)" fill="#4cd05e"/>
            <path id="Path_178" data-name="Path 178" d="M1977.072,1718.32,2000,1732.744v1.315l-22.927-14.424Z" transform="translate(-1977.072 -1691.514)" fill="#4cd15f"/>
            <path id="Path_179" data-name="Path 179" d="M1977.072,1714.994,2000,1729.417v1.316l-22.927-14.424Z" transform="translate(-1977.072 -1689.504)" fill="#4dd260"/>
            <path id="Path_180" data-name="Path 180" d="M1977.072,1711.666,2000,1726.09v1.315l-22.927-14.424Z" transform="translate(-1977.072 -1687.491)" fill="#4ed261"/>
            <path id="Path_181" data-name="Path 181" d="M1977.072,1708.339,2000,1722.763v1.315l-22.927-14.424Z" transform="translate(-1977.072 -1685.479)" fill="#4fd362"/>
            <path id="Path_182" data-name="Path 182" d="M1977.072,1654.155l2.3-3.648H2000v37.284l-22.927-14.424Z" transform="translate(-1977.072 -1650.507)" fill="#4fd362"/>
          </g>
        </g>
      </g>
      <g id="Group_273" data-name="Group 273" transform="translate(0 129.196)">
        <path id="Path_183" data-name="Path 183" d="M1739.637,1662.343c-2.49,4.025-5.546,4.558-7.447,4.408l-2.364-2.593a19.726,19.726,0,0,0-8.175-5.368l-9.85-3.107.008-.036a9.091,9.091,0,0,1,.782-18.148c2.852,0,5.664,1.663,8.183,2.854,5.063,2.395,10.253,4.763,12.874,10Z" transform="translate(-1703.5 -1637.5)" fill="#2a2e35"/>
      </g>
      <g id="Group_274" data-name="Group 274" transform="translate(28.69 154.04)">
        <path id="Path_184" data-name="Path 184" d="M1787.963,1709.94a3.042,3.042,0,0,1-5.293,2.052l-6.589-7.234c1.9.15,4.957-.384,7.447-4.408l4.115,8.23A3.043,3.043,0,0,1,1787.963,1709.94Z" transform="translate(-1776.08 -1700.35)" fill="#21262d"/>
      </g>
      <g id="Group_275" data-name="Group 275" transform="translate(12.369 129.591)">
        <path id="Path_185" data-name="Path 185" d="M1734.988,1638.994h-.2v-.494l.274.11h0l.036.014-.074.167h.16l-.161,0-.016.036Z" transform="translate(-1734.79 -1638.5)" fill="#44a54d"/>
      </g>
      <g id="Group_276" data-name="Group 276" transform="translate(35.378 161.412)">
        <path id="Path_186" data-name="Path 186" d="M1853.964,1808.462a30.078,30.078,0,0,1-8.039-1.124c-11.716-3.246-21.259-11.993-26.869-24.628-2.667-6.007-4.2-12.351-5.681-18.488-.967-4-1.967-8.144-3.264-12.077a89.027,89.027,0,0,0-16.591-29.562,2.174,2.174,0,0,1,3.311-2.818,93.42,93.42,0,0,1,17.411,31.018c1.353,4.1,2.374,8.33,3.361,12.418,1.437,5.948,2.922,12.1,5.428,17.744,5.073,11.425,13.616,19.31,24.057,22.2,10.533,2.919,20.119-.755,25.016-9.59,3.494-6.3,4.966-14.669,4.144-23.564a2.174,2.174,0,1,1,4.33-.4c.9,9.756-.757,19.016-4.67,26.073A24.529,24.529,0,0,1,1853.964,1808.462Z" transform="translate(-1793 -1719)" fill="#21262d"/>
      </g>
      <g id="Group_277" data-name="Group 277" transform="translate(113.842 141.845)">
        <rect id="Rectangle_113" data-name="Rectangle 113" width="11.859" height="11.859" rx="5.929" fill="#04960b"/>
      </g>
      <g id="Group_278" data-name="Group 278" transform="translate(22.393 145.992)">
        <path id="Path_187" data-name="Path 187" d="M1766.673,1687.895l-2.6-3.282,0,0-.013-.466a.056.056,0,0,0-.1-.039l-.138.184-1.057,1.522-2.606-4.031,1.3-1.791,1.33,1.973,0,0-.055.4a.038.038,0,0,0,.068.031l.147-.191,1.3-1.62Z" transform="translate(-1760.151 -1679.989)" fill="#41ce52"/>
      </g>
      <g id="Group_279" data-name="Group 279" transform="translate(55.921)">
        <path id="Path_188" data-name="Path 188" d="M1855.4,1373.809l1.543-28.154,0-.024,2.013-2.407a.377.377,0,0,0-.345-.653l-1.517.314-12.125,2.947,4.868-31.949,14.537-3.225-2.1,15.877,0,.017-2.044,1.748a.255.255,0,0,0,.2.457l1.592-.306,13.8-2.347Z" transform="translate(-1844.97 -1310.658)" fill="#41ce52"/>
      </g>
      <g id="Group_280" data-name="Group 280" transform="translate(126.072 46.384)">
        <path id="Path_189" data-name="Path 189" d="M2043.065,1430.372H2023.3a.834.834,0,0,1-.8-1.186h0a1.789,1.789,0,0,1,1.571-1.186h19.764a.834.834,0,0,1,.8,1.186h0A1.789,1.789,0,0,1,2043.065,1430.372Z" transform="translate(-2022.439 -1428)" fill="#41ce52"/>
      </g>
      <g id="Group_281" data-name="Group 281" transform="translate(122.066 55.08)">
        <path id="Path_190" data-name="Path 190" d="M2029.411,1452.372H2013.02c-.541,0-.84-.534-.664-1.186h0a1.551,1.551,0,0,1,1.3-1.186h16.39c.541,0,.84.534.665,1.186h0A1.551,1.551,0,0,1,2029.411,1452.372Z" transform="translate(-2012.305 -1450)" fill="#41ce52"/>
      </g>
      <g id="Group_282" data-name="Group 282" transform="translate(117.27 63.776)">
        <path id="Path_191" data-name="Path 191" d="M2012.2,1474.372h-11.523c-.38,0-.591-.534-.467-1.186h0c.123-.653.536-1.186.916-1.186h11.523c.38,0,.591.533.467,1.186h0C2012.989,1473.838,2012.577,1474.372,2012.2,1474.372Z" transform="translate(-2000.171 -1472)" fill="#41ce52"/>
      </g>
      <g id="Group_283" data-name="Group 283" transform="translate(112.758 74.844)">
        <path id="Path_192" data-name="Path 192" d="M2014.126,1506.72H1991.2a2.363,2.363,0,0,1-2.271-3.36h0a5.07,5.07,0,0,1,4.45-3.36h22.927c1.848,0,2.869,1.512,2.27,3.36h0A5.068,5.068,0,0,1,2014.126,1506.72Z" transform="translate(-1988.757 -1500)" fill="#41ce52"/>
      </g>
      <g id="Group_284" data-name="Group 284" transform="translate(176.385 189.873)">
        <rect id="Rectangle_114" data-name="Rectangle 114" width="39.529" height="3.162" rx="1.581" fill="#b0d6b0"/>
      </g>
      <g id="Group_285" data-name="Group 285" transform="translate(176.495 197.383)">
        <rect id="Rectangle_115" data-name="Rectangle 115" width="39.529" height="3.162" rx="1.581" fill="#b0d6b0"/>
      </g>
      <g id="Group_286" data-name="Group 286" transform="translate(176.606 204.894)">
        <rect id="Rectangle_116" data-name="Rectangle 116" width="39.529" height="3.162" rx="1.581" fill="#b0d6b0"/>
      </g>
      <g id="Group_287" data-name="Group 287" transform="translate(176.716 212.404)">
        <rect id="Rectangle_117" data-name="Rectangle 117" width="39.529" height="3.162" rx="1.581" fill="#b0d6b0"/>
      </g>
      <g id="Group_288" data-name="Group 288" transform="translate(176.826 219.914)">
        <rect id="Rectangle_118" data-name="Rectangle 118" width="39.529" height="3.162" rx="1.581" fill="#b0d6b0"/>
      </g>
      <g id="Group_289" data-name="Group 289" transform="translate(176.936 227.425)">
        <rect id="Rectangle_119" data-name="Rectangle 119" width="39.529" height="3.162" rx="1.581" fill="#b0d6b0"/>
      </g>
      <g id="Group_290" data-name="Group 290" transform="translate(177.047 234.935)">
        <rect id="Rectangle_120" data-name="Rectangle 120" width="39.529" height="3.162" rx="1.581" fill="#b0d6b0"/>
      </g>
      <g id="Group_291" data-name="Group 291" transform="translate(177.157 242.446)">
        <rect id="Rectangle_121" data-name="Rectangle 121" width="39.529" height="3.162" rx="1.581" fill="#b0d6b0"/>
      </g>
    </g>
    <g id="Group_293" data-name="Group 293" transform="translate(624.355 1157.634)">
      <path id="Path_193" data-name="Path 193" d="M1350.095,1957.757H669.1a1.384,1.384,0,1,1,0-2.767h680.991a1.384,1.384,0,1,1,0,2.767Z" transform="translate(-667.72 -1954.99)" fill="#346c9b"/>
    </g>
    <g id="Group_294" data-name="Group 294" transform="translate(1317.403 1157.638)">
      <path id="Path_194" data-name="Path 194" d="M2442.543,1957.767h-20.16a1.384,1.384,0,0,1,0-2.767h20.16a1.384,1.384,0,0,1,0,2.767Z" transform="translate(-2421 -1955)" fill="#346c9b"/>
    </g>
    <g id="Group_295" data-name="Group 295" transform="translate(1349.421 1157.638)">
      <path id="Path_195" data-name="Path 195" d="M2510.7,1957.767h-7.313a1.384,1.384,0,0,1,0-2.767h7.313a1.384,1.384,0,1,1,0,2.767Z" transform="translate(-2502 -1955)" fill="#346c9b"/>
    </g>
    <g id="Group_296" data-name="Group 296" transform="translate(609.84 1157.638)">
      <path id="Path_196" data-name="Path 196" d="M639.7,1957.767h-7.313a1.384,1.384,0,0,1,0-2.767H639.7a1.384,1.384,0,0,1,0,2.767Z" transform="translate(-631 -1955)" fill="#346c9b"/>
    </g>
  </g>
</svg>
